<svg width="60" height="60" fill="none" xmlns="http://www.w3.org/2000/svg"><path d="M0 57.82h8.79l2.485-8.951v-8.952H0V57.82z" fill="#BED8FB"/><path d="M0 57.808h8.79l2.485-6.421H0v6.421z" fill="#9DC6FB"/><path d="M30.505 48.703l1.315-.429 13.994-13.407a5.542 5.542 0 017.524-.136 5.543 5.543 0 01.175 8.117l-13.458 13.07" fill="#FFCBBE"/><path d="M8.79 57.754h23.084c2.834 0 5.63-.648 8.176-1.896L56.892 47.6a5.545 5.545 0 00-4.849-9.974l-17.458 8.413-25.797-4.188" fill="#FFDDCE"/><path d="M18.638 47.28h11.567c1.172 0 2.235-.46 3.022-1.209a5.312 5.312 0 00-3.373-9.416h-7.05A7.38 7.38 0 008.797 39.9v12.365" fill="#FFDDCE"/><path d="M18.626 44.925h11.567c1.172 0 2.235-.46 3.022-1.209a5.306 5.306 0 001.806-2.92 5.3 5.3 0 01-1.806 5.288 4.37 4.37 0 01-3.022 1.208H18.625v-2.367zm.447-11.803a7.381 7.381 0 00-4.488 6.793v13.328l-5.781-.963V39.915a7.38 7.38 0 0110.269-6.793z" fill="#FFCBBE"/><path d="M56.893 47.664l-16.844 8.258a18.561 18.561 0 01-8.175 1.897H8.789v-6.421h23.085c2.835 0 5.63-.65 8.176-1.897l16.843-8.259a5.522 5.522 0 002.08-1.765 5.544 5.544 0 01-2.08 8.186z" fill="#FFCBBE"/><path d="M45.35 7.732a2.131 2.131 0 00-.962-2.857l-3.3-1.635a2.131 2.131 0 00-2.858.963l-6.532 13.18-3.181-5.321a2.13 2.13 0 00-2.923-.736l-3.162 1.89a2.132 2.132 0 00-.736 2.923l6.268 10.485a2.133 2.133 0 001.913 1.037l4.443-.175c.78-.03 1.48-.485 1.825-1.183l9.206-18.57z" fill="#95D6A4"/><path d="M33.028 19.605l7.634-15.402c.17-.343.42-.62.717-.819l-.29-.144a2.131 2.131 0 00-2.858.963L31.7 17.383l1.329 2.222zm-2.626 7.025l-6.268-10.485a2.132 2.132 0 01.736-2.923l3.034-1.814a2.13 2.13 0 00-2.303-.076l-3.162 1.89a2.132 2.132 0 00-.735 2.923l6.268 10.484a2.13 2.13 0 001.912 1.037l1.8-.07a2.135 2.135 0 01-1.282-.967z" fill="#78C2A4"/><path d="M17.99 23.354l-.16-.278a2.148 2.148 0 00-2.805-.855l-3.12 1.527a2.148 2.148 0 00-.916 3.003l.398.69a2.148 2.148 0 003.059.707l2.882-1.938a2.148 2.148 0 00.662-2.857zm-2.83-7.845v-.32c0-1.13-.875-2.066-2.002-2.143l-3.465-.238a2.148 2.148 0 00-2.296 2.143v.795a2.148 2.148 0 002.296 2.143l3.465-.238a2.148 2.148 0 002.001-2.142zm2.677-7.889l.16-.276a2.148 2.148 0 00-.662-2.857L14.454 2.55a2.148 2.148 0 00-3.059.708l-.398.689a2.148 2.148 0 00.916 3.003l3.12 1.527a2.148 2.148 0 002.805-.855zm31.245 15.734l.16-.278a2.148 2.148 0 012.805-.855l3.12 1.527a2.148 2.148 0 01.916 3.003l-.398.69a2.148 2.148 0 01-3.06.707l-2.882-1.938a2.148 2.148 0 01-.661-2.857zm2.832-7.845v-.32c0-1.13.874-2.066 2.001-2.143l3.466-.238a2.148 2.148 0 012.295 2.143v.795a2.148 2.148 0 01-2.295 2.143l-3.466-.238a2.148 2.148 0 01-2-2.142zM49.242 7.62l-.16-.276a2.148 2.148 0 01.661-2.857l2.883-1.938a2.148 2.148 0 013.059.708l.398.689a2.148 2.148 0 01-.916 3.003l-3.12 1.527a2.148 2.148 0 01-2.805-.855z" fill="#D6F6B2"/></svg>