<svg width="100" height="100" fill="none" xmlns="http://www.w3.org/2000/svg"><g clip-path="url(#clip0)" fill-rule="evenodd" clip-rule="evenodd" fill="#1D976C"><path d="M46.034 6.362c11.781-1.343 24.28 3.208 32.745 10.65 3.485 3.062 7.79 8.033 9.767 12.214.639 1.35 1.28 2.477 1.803 3.747.562 1.366 1.029 2.562 1.461 3.927.914 2.887 1.406 5.743 1.824 9.052.812 6.423-.573 13.919-2.495 19.205-1.943 5.347-4.813 9.85-8.151 13.711-6.963 8.055-17.93 14.114-29.007 14.837-3.364.22-7.37.29-10.523-.253-4.12-.71-5-1.09-8.648-2.249-4.71-1.497-10.572-5.296-13.697-8.136C13.028 75.718 7.137 65.779 6.278 54.06 5.275 40.378 9.9 29.088 16.939 21.208c7.098-7.946 16.045-13.36 29.095-14.846zm.391-2.148c-8.377.48-18.212 4.37-24.298 9.244-2.227 1.784-4.037 3.371-5.825 5.267C3.622 32.178.566 51.715 8.085 69.032c2.092 4.818 5.415 9.503 9.044 13.148 6.298 6.328 12.568 9.846 21.126 12.316 5.252 1.517 8.843 1.51 13.882 1.508 5.14-.002 13.247-2.3 17.645-4.46 9.98-4.905 17.374-12.506 21.991-22.387 2.974-6.364 4.137-12.52 4.127-20.305-.01-9.272-3.59-18.565-8.59-25.6-1.653-2.325-3.132-3.948-5.218-6.034-1.852-1.852-4.234-3.772-6.257-5.166C71.595 9.13 65.18 6.174 60.038 5.17c-5.564-1.087-8.12-1.299-13.613-.956z"/><path d="M43.816 25.25c.141-1.45 1.996-2.357 2.275-2.605.262-.235.496-.532.824-.79-.268.789-.785 2.244-1.28 2.861-1.567 1.954-.975 1.816-1.57 2.508-.008-2.162 1.344-2.34 1.617-3.68-.718.317-1.418 1.105-1.866 1.705zm5.149-5.628c1.601-1.506 1.559-2.638 2.792-2.79-.7.665-.618.567-1.13 1.446-1.89 3.248-.346.132-1.618 3.43-.17.438-.48 1.386-.475 1.884-.274-1.875.467-2.375.431-3.97zm7.85-8.66c-.182.23-.03.096-.279.293-.039.032-.168.108-.211.136-.87.554-1.889.978-2.59 2.29l-.254-.514-1.645 1.512c.218-1.37 3.217-2.994 4.43-3.84L56 10.814l-3.23.77-.87.305c-1.265.296-1.196.643-1.542 1.1-.123-.977.453-1.31 1.358-1.456l-.357-.412c-2.193.301-2.607.385-2.64 2.838.528.2 1.268.602 1.403 1.158l.58.534c1.401-.303 2.096-.711 3.196.537l3.364 4.53c.655.823 1.504 1.268 1.516 2.497-.924-.177-1.865-1.1-2.483-1.702-.366-.357-.525-.57-.992-1.026-.41-.399-.648-.458-1.066-1.032.399-.844.537-.2.435-1.242l-1.063-.438c.209-2.46-1.252-1.996-3.084-1.517-.2.352-.456.407-.736.865-.252.412-.319.783-.396 1.281-.821-.115-1.2-.562-1.879.118-.777.778-.504 1.542-1.096 1.767l-.647.198c-.708.263-1.148.926-1.36 1.639-.315 1.06.1.86-.673 1.53-2.295 1.99-.248 1.9-.008 4.373.08.817.094 2.313.401 2.986l.406.54c.018-.032.077.072.117.106.048-1.493-.128-1.79.69-2.704 2.342-2.614 4.029-1.721 4.144-5.47.724-.667 1.354-.925 2.144-1.678.783-.745.954-1.609 1.681-2.072.942-.223 3.322 3.44 5.436 4.331l-.038 1.938a1.052 1.052 0 01-.115.073l-.727.3a2.03 2.03 0 00-.622.369c-.347.296-.56.684-.937.94-.167 1.08-.125.327.195.6l.587-.605c.321-.693.84-.844 1.594-.815l.043 1.334-1.51-.23-.226.138c-.032.019-.185.094-.228.121-.403.263-.156-.055-.493.463.344.264.281.171 1.017.27.866.115 2.045.751 2.404 1.565-1.252-.143-1.16-1.024-3.25-1.05 1.077 2.108 1.793 1.26 2.855 3.07-.452-.144-.55-.324-.896-.552-.328-.216-.647-.428-1.018-.59l.676 3.51c-.625-.628-.435-1.124-.903-1.876l-.443 2.48c-.594-2.221 1.025-4.635-1.05-5.906-.302.258-.503.582-.802.957-1.064 1.333-.063 3.146-.4 4.647-.131.59-.01.137-.141.338l-.469-3.37c-1.735.954-.766 3.061-1.379 4.155-.07-.144-.073-.051-.145-.432l-.191-1.305c-.565.84-.878 1.837-1.326 2.651-.063-1.858 1.605-3.772 2.23-5.118-2.173.506-2.065.79-3.112 1.126 1.387-2.008 3.43-.52 5.196-3.898-.813-.494-2.395-.347-3.04.112-.74.527-1.316 1.334-2.284 1.706.433-.658 1.112-1.183 1.37-1.681l-2.975.142c.457-.5 1.418-.486 2.09-.617-.386-.327-.687-.341-1.064-.864 1.197.169 1.632.787 2.98.566 1.357-.222 2.342.116 3.338.049-1.52-1.398-2.887-1.368-3.014-2.364.587.412.937.538 1.678.88 1.233.57 1.269.801 1.889.993l-.048-.937c-.538-1.368-.78-2.19-2.278-2.647-1.515-.464-2.27-.574-3.554-1.12-.016.872.558 1.46-.347 2.332-.517.498-1.176.516-1.84 1.012l-2.979 2.942c1.303 1.476 2.485.76 2.137 4.459 1.053.615 1.198 1.09 1.063 2.765 1.064 1.118 1.196 1.174 1.431 2.804l.17.834c.008.03.044.145.05.122.007-.023.033.081.055.119.464-.288 2.643-3.039 5.877-3.361 1.371-.137 1.587.076 2.752.306L58.414 53c.47-.896 1.23-2.185 2.147-2.758.103-3.626-.131-7.371-.142-10.964-.005-1.795-.326-3.685.408-5.091.362-.693.908-1.038.845-1.932-.093-1.33-.003-.96.197-2.19-3.522-.564-.36-3.62.347-3.88 1.071 1.963.355 3.6.53 5.699 1.258-.11 1.422-.59 3.054-.197 3.652.883 4.514 3.361 5.656 4.807.36-.412.56-1.435.91-2.009.367-.6.817-1.045 1.579-1.282.142-1.44.29-2.055 1.67-2.506.17-2.613.845-2.597 2.474-3.413.045-.022.194-.107.226-.125.024-.014.088-.019.106-.071.017-.053.07-.048.104-.074-.304-.602-.73-1.112-1.111-1.766-1.792-3.068-2.061-2.18-2.58-3.111-.499-.894.061-1.563.286-2.136-.718.08-1.171.275-1.977.292-2.992.064-2.984-.378-4.54 2.354-.074.907-.096.325.238.526.405-.517 1.057-.46 1.742-.613.335-.076.551-.148.931-.246.663-.172.568-.126.745-.003-1.007.735-2.876.717-3.306 1.434 1.774.144 1.697.047 3.247.677 1.114.452 2.458-.163 3.075.073l-1.446.53 3.026 1.27c-1.567-.034-2.751-.767-4-1.034l.844 1.722c-1.536-.738-.945-2.833-4.546-2.752.117 1.274.933 2.29 2.004 2.916 1.236.723 1.73 1.166 2.392 2.499-.815-.79-1.562-1.712-3.02-2.216.342 1.447 1.514 4.088.868 5.576-.206-1.195-.024-1.827-.613-2.865-.088.104-.112.094-.238.342l-.507 1.354c-.21-2.187 1.198-2.64-.263-4.641-.43.94-.869 2.204-1.233 3.15-.489-1.824 1.972-3.39.057-5.877-.7.211-1.408.935-1.597 1.846l-.228 2.252c-.126.515-.213.52-.415.708l.04-2.022c-.415.565-.397.903-1.026 1.37l1.202-2.898c-.827.2-1.279.457-1.891.615.197-.56.096-.403.716-.714.828-.415 2.262-.555 2.478-1.572-2.143-.38-2.5.56-3.248.273.907-.92 2.145-1.084 3.646-.666-.26-.996-.406-.683-.795-1.128-1.24.003-1.288-.255-2.519.316-1.047.485-.969.594-2.33.564.107 1.194.22 1.51-.666 2.167-.561.417-1.07.943-1.672 1.195l-.08-4.331c.602-.345 1.827-1.397 2.624-2.03 1.24-.984 1.972-1.908 2.794-1.684l.155 2.554c2.162-.652 2.045-3.505 2.812-3.798.842-.012.867.301 1.609.402.147-3.025-.498-2.658-1.01-3.24-.436-.495-.344-.79-.86-1.307-1.168-1.17-2.007-.721-2.96-1.269-.732-.42-.762-.379-1.821-.33-1.529.07-.648-.261-3.166-1.11-.004 1.628 3.482 1.983 4.461 2.497 1.545.812 3.4 1.343 3.85 2.717-.327-.474-1.697-1.359-2.578-1.57L67.4 16.41c-1.202-1.012-2.265-3.133-4.496-3.156.287.988.904 1.605 1.475 2.317-.813-.264-1.45-1.133-1.82-1.834-.478-.904-.178-.629-1.467-1.374l-.64-.345c-.04 6.153-.136 3.084 1.612 6.023-.625-.283-.56-.178-1.01-.614-.422-.408-.4-.487-.9-.726-.117 1.158-.385.654.234 1.558.347.507.569.616.815 1.245-.861-.374-.655-.747-1.408-1.057l-.344 2.307c-.363-1.49.158-2.55.177-4.067-1.087.139-1.425.702-2.232 1.21.363-1.592 1.474-1.377 2.507-1.969l.02-2.61c-1.669-.005-2.266.926-3.22 1.796l-.092.087.211-.77c-.53.05-.709.163-1.164.21-.754.08-.946-.096-.946-.096l-.24-.137c.958-.23 2.15-.24 2.977-.722.511-.297.492-.493 1.132-.706l1.186-.345c.022-.055.083-.041.14-.07l-.164-1.056-.144-1.824c-1.232-.013-1.803.702-2.225 1.646l-.558-.369zM28.893 51.084c-.434-.325-.284-1.072-.28-1.728.004-.52-.043-1.34.048-1.82.215-1.137 1.333-1.165 2.645-1.11 4.836.201 3.124 2.647 5.196 2.446 2.007-.195 1.181-4.269-.023-5.176-.652-.49-2.41.04-3.162.133-2.822.347-7.846-.037-11.092.135-1.778.095-1.634 1.527-1.248 1.95 1.096 1.201 2.272-1.257 2.045 9.158-.108 4.937-.908 4.201-2.106 5.193-.086 2.035 1.191 1.595 2.999 1.593 1.456-.002 2.912.007 4.367 0l8.568.112c.8-.658 1.562-2.357 1.834-3.728.473-2.383-1.237-3.48-2.235-2.054-.904 1.293-.766 2.267-2.774 2.787-2.18.564-4.593.868-4.805-1.397-.108-1.16-.36-3.069.457-3.524 1.899-1.057 2.39 2.205 2.48 2.389l1.139.05c.974-1.285 1.232-2.334 1.195-4.285-.029-1.541-.17-3.784-1.995-3.556-1.18.405-.238 3.678-2.975 2.638-.606-.23.058.202-.278-.206z"/><path d="M40.116 47.77c.6.191.302-.075.706.307.753.757.348 7.85.216 9.51-.146 1.844-.183 1.275-1.14 2.21-.757.74-.145 1.805.559 2.063.618.227 2.382.248 3.112.249 1.887.003 4.726.233 4.597-2.002-.535-1.12-1.546-1.216-.859-3.142.839.369 2.697 3.193 3.57 4.226.817.966 1.83.662 3.276.669 1.18.005 2.719.172 3.643-.258 1.408-.656 1.006-1.728.062-2.346-1.988-1.304-5.087-5.23-5.145-6.373 2.428-2.003 2.163-.971 3.578-1.876.13-1.174-.279-1.676-1.238-1.9-.773-.182-1.844-.27-2.753-.26-4.568.054-3.002 1.87-2.842 2.524-.316.447-1.127 1.116-1.717 1.162-.84.065-.484-.1-.603-.209-.461-.72-.185-3.587-.175-4.648.03-3.493.533-3.829-1.205-3.713-1.197.08-2.821.627-3.89 1-2.162.755-2.646.954-2.584 2.465.265.126.482.23.832.342z"/><path d="M67.555 58.87c-1.07.129-1.437.014-1.823-.759-.48-.96-1.857-5.293-.503-6.084 2.314-1.353 3.568 5.286 2.326 6.843zm6.305-1.955c1.021-3.468-1.63-7.62-5.924-8.08-3.982-.427-7.867 1.512-8.915 5.102-1.928 6.6 5.373 10.516 11.638 6.904 1.457-.84 2.637-2.011 3.2-3.926zM44.768 72.537c.032-.296-1.252-5.598.481-5.52 1.053.386.838 1.375.812 2.668-.065 3.11-.84 1.015-.743 3.02.398.026-.089-.025.427.157 1.225.433 4.302.299 4.664-.349.394-.705-.447-.583-.501-3.167-.028-1.304-.264-2.597 1.353-2.296.491.817.433 1.634.391 2.804-.085 2.379-.547 1.08-.59 2.61.847.502 1.329.66 2.586.65 3.738-.033 2.019-1.695 1.904-2.284-.224-1.145.315-4.065-.32-5.235-.412-.757-1.55-1.287-2.69-1.083-1.32.235-1.662.862-2.42 1.331-.75-.439-.825-1.565-2.86-1.346-1.526.165-1.862 1.253-2.693 1.476-.295-1.77-.187-1.702-2.192-1.211-4.062.995-2.085 1.725-1.844 2.585.125.445.079 1.493.073 2-.036 3.235-1.128 1.67-.848 3.302 1.249.716 3.765.552 5.01-.112zm18.323-.947c-.271.346-.402-.018-.223.75.293 1.251 4.666.805 5.03.198.256-.426-1.191-3.556-.053-5.439 1.632-.362 1.652.686 1.662 2.246.02 3.059-.799 1.922-.572 3.36.725.4 1.65.441 2.69.388 3.856-.196 2.01-1.538 1.811-2-.623-1.445 1.03-6.917-3.324-6.617-1.687.116-1.62 1.193-2.52 1.313-.261-.476-.06-.61-.407-1.238-1.172-.19-3.812.788-4.445 1.435-.083 1.566.938.148.913 2.684-.006.62-.013 1.194-.074 1.724-.157 1.378-.328.993-.488 1.196zm-29.278-2.071c1.167-.723 1.007 1.448.466 1.665-.985.397-1.454-1.053-.466-1.665zm5.367 1.507c-1.929-1.427-.269-2.935-1.099-4.932-1.217-2.93-8.093-1.538-7.68.904.163.96 1.364.764 1.967.22.73-.655.415-.828 1.468-1.376l.684.48c.351 2.616-.281 1.499-2.251 1.988-3.535.876-2.669 4.252-.775 4.708 1.946.47 2.35-.313 3.508-.64.612.27.457.536 1.19.701 1.186.269 3.071-.42 2.988-2.053z"/><path d="M22.705 66.825c.317-.793 1.232-.573 1.338-.133.068.278-.111.553-.217.72-.23.366-.243.325-.516.545-.18.892-2.15 3.407-2.268 3.944-.219 1 .548.983.839 1.008l2.874-.005c.915 0 3.017.24 3.527.153.446-.194 2.364-2.654.336-3.367-.886.5-.558 1.271-1.52 1.373-.292.03-.24-.01-.448-.045l-.271-.108c-.201-.711.904-2.233 1.332-2.99.823-1.454 1.343-2.007 1.253-3.107l-7.065-.37c-.596.534-1.366 1.66-1.134 2.69.377 1.675 1.661-.274 1.94-.308zm35.365 6.362l2.85.006-.221-11.575c-.316-.405-.671-.722-1.24-.912-.281 1.118-.54 1.062-1.261 1.752l-.128 10.729zM21.515 75.73h51.707c-.207-.17-.154-.22-.748-.29l-47.887.011c-.561 0-1.121 0-1.682-.006-1.648-.018-1.206.124-1.39.285zm22.709 2.313c.43-.242.911-.24 1.398.004.273.136.648.469.775.733.378.787.001 1.807-.642 2.143-1.953 1.021-3.548-1.746-1.531-2.88zm2.627 2.222c1.084-2.553-2.777-3.878-3.784-1.662-1.2 2.642 2.676 4.268 3.784 1.662zM70.73 78.54c.32.206.1-.028.354.255l.344.973-1.103-.024.404-1.204zm-1.458 2.922c.409-.29.508-.745.78-1.23l1.572.046c.528.613.265.812.914 1.205-.027-.839-.429-1.451-.739-2.069-.858-1.706-.193-1.335-1.105-1.733l-1.32 2.857c-.54 1.202-.196.759-.102.924zm-13.775.011c.36-.575.148-1.76.24-2.843l1.832 2.077c.117.131.194.248.326.36.301.253.078.13.473.258l-.183-3.673c-.12.173-.115.052-.212.426l-.054 2.293c-.935-.645-1.584-2.18-2.623-2.701-.025.699-.013 1.392-.018 2.091-.006.67-.116 1.238.219 1.712zM28.47 78.615c.619.343.613.329.76 1.122l-1.106-.001.346-1.12zm-1.363 2.864c.413-.284.52-.764.687-1.235l1.717-.008c.242.521.323.962.787 1.23.07-.132.447.226-.16-.993-.463-.927-1.068-2.53-1.52-2.831-.27.363-.743 1.41-.956 1.857L27 81.017c-.142.907-.107.123.108.462zM76.64 49.028c3.106-.204 2.367 2.49 1.162 2.851-1.364.409-2.958-1.112-1.162-2.85zm2.434 2.007c.808-2.375-2.567-3.324-3.456-1.382-1.098 2.397 2.615 3.86 3.457 1.382zm-27.92 29.257c-.785-.636-.797-2.117-1.537-2.7-.375.37.595 2.135.977 3.023l.212.487c.242.393.105.17.323.283l1.22-2.761c.018-.036.208-.445.211-.46.184-.932.035-.244-.087-.528-.505.38-1.085 1.973-1.32 2.656zm-16.699.091c-.412-.622-.945-2.487-1.469-2.803-.395.44 1.25 3.615 1.512 3.812.344-.521 1.484-3.198 1.517-3.8-.769.3-.822 1.503-1.56 2.79zM22.544 77.92c1.056.012 1.557-.04 1.51 1.013-.564.358-.595.368-1.524.33l.014-1.342zm1.718 1.53c.44-1.104.357-1.053-.241-1.832l-1.911-.005.125 3.844c.535-.331.232-.171.322-1.784l1.705-.223zm14.604-1.864c-.524.746-.248 2.847-.184 3.875.743.035 1.404.15 1.883-.188-.316-.447-.745-.27-1.421-.274-.012-.786.314-3.01-.278-3.413zm25.946.598c-.268-.43-.194-.502-.742-.578.15.688.6 1.145.927 1.716.447.778.112.978.25 1.774.052.295.07.212.161.367.336-.436.209-.22.224-1.205.023-1.406.852-1.541 1.074-2.632-.818.051-.614.743-1.298 1.343-.192-.18-.137-.097-.34-.371-.104-.143-.162-.263-.256-.414zm-3.436-.579c-.439.214-.3.031-.319.798-.017.724-.057 2.561.151 3.054.453-.247.313-.028.323-.843.01-.757.074-2.558-.155-3.01z"/><path d="M77.567 50.027c-.512.72-.59.177-.611.168.034-.032.042-.11.062-.127.545-.483.493-.068.549-.04zm.487 1.349c-.162-.452-.327-.536-.308-.81.016-.239.19-.151.208-.88l-1.409.044.118 1.647c.297-.216.075-.062.273-.35.024-.033.131-.132.145-.209.012-.061.054-.07.086-.102.76.508.058.413.887.66z"/></g><defs><clipPath id="clip0"><path fill="#fff" d="M0 0h100v100H0z"/></clipPath></defs></svg>