<svg height="225" viewBox="0 0 1170 225" fill="none" xmlns="http://www.w3.org/2000/svg"><path d="M27.284 112.23c11.129 159.315 224.107 139.736 224.107 0s210.676-153.556 224.875 0c14.198 153.557 213.362 142.04 224.874 0s206.071-155.475 224.107 0" stroke="#1D976C" stroke-dasharray="2 2"/><g clip-path="url(#clip0)" fill="#1D976C"><path d="M25.347 102.481a2.386 2.386 0 003.031-.991c1.233-2.134 3.294-6.486 3.252-11.669-.021-2.642-.734-5.786-1.956-8.626l-.046-.104 1.723-4.166a2.373 2.373 0 00-.13-2.094l-2.75-4.833a1.637 1.637 0 00-1.342-.828 1.636 1.636 0 00-1.422.682l-2.236 3.112-.18-.135a2.384 2.384 0 00-2.151-.341l-7.09 2.319a2.39 2.39 0 00-1.535 1.547l-.065.215-3.643-1.19a1.645 1.645 0 00-2.143 1.75l.638 5.524a2.372 2.372 0 001.131 1.767l3.852 2.342.025.112c.692 3.013 1.975 5.971 3.519 8.115 3.029 4.206 7.263 6.499 9.518 7.492zM9.088 82.447l-.61-5.283 3.55 1.159c-.356 1.922-.407 3.975-.151 6.087l-2.51-1.526a.586.586 0 01-.279-.437zm5.52-5.931l7.09-2.32a.589.589 0 01.527.081 15.47 15.47 0 012.065 1.835l-10.638 3.48a15.54 15.54 0 01.58-2.7.583.583 0 01.377-.376zm15.081-.279l-1.122 2.714c-1.041-1.854-2.296-3.48-3.72-4.82l2.18-3.034 2.63 4.623c.09.16.102.348.032.517zM14.062 86.471a20.62 20.62 0 01-.545-4.944l12.024-3.932a20.973 20.973 0 012.48 4.31c1.132 2.629 1.791 5.52 1.81 7.93.039 4.757-1.87 8.78-3.01 10.755a.589.589 0 01-.75.245c-2.087-.919-6.003-3.037-8.783-6.897-1.409-1.957-2.585-4.678-3.226-7.467z"/><path d="M19.116 88.522a4.483 4.483 0 00-.265 3.43 4.466 4.466 0 002.24 2.612 4.466 4.466 0 003.43.263 4.5 4.5 0 002.876-5.67 4.467 4.467 0 00-2.24-2.613 4.467 4.467 0 00-3.43-.263 4.481 4.481 0 00-2.611 2.24zm6.572 1.194a2.689 2.689 0 01-.16 2.057 2.69 2.69 0 01-1.566 1.345 2.68 2.68 0 01-2.058-.158 2.68 2.68 0 01-1.344-1.567 2.7 2.7 0 011.725-3.403 2.68 2.68 0 012.059.158 2.68 2.68 0 011.344 1.568zm-7.406-24.162a.896.896 0 00-.053.686l1.29 3.946a.9.9 0 101.71-.56l-1.29-3.945a.9.9 0 00-1.657-.127zm-1.244 6.39a.9.9 0 00.575-1.134l-2.482-7.587a.9.9 0 10-1.709.559l2.481 7.587a.899.899 0 001.135.575zm-3.042.048l-1.29-3.946a.9.9 0 00-1.71.56l1.291 3.945a.9.9 0 001.71-.559z"/></g><g clip-path="url(#clip1)" fill="#1D976C"><path d="M1136.43 70.904a1.288 1.288 0 00-1.56-.91c-.69.17-1.11.855-.93 1.529l8.39 32.453c.14.57.67.95 1.24.95.1 0 .21-.012.32-.039.68-.17 1.1-.855.92-1.529l-8.38-32.454zm27.91 9.141c-1.36-4.95-2.73-9.899-4.1-14.848-.15-.536-.41-1.11-1.38-1.168-7.69-.546-12.74 6.961-20.42 6.415-.61-.073-1 .236-.85.772 1.37 4.95 2.72 9.902 4.1 14.849.22.794.78 1.094 1.38 1.168 7.69.546 12.74-6.962 20.42-6.416.61.074 1-.236.85-.772zm-6.03-14.148c.38 1.366.76 2.731 1.13 4.097-1.61.052-3.04.372-4.55.928l-1.14-4.097c1.52-.555 2.94-.876 4.56-.928zm-15.84 15.31a784.19 784.19 0 01-1.28-4.655c1.7-.048 3.2-.41 4.78-1.02-.38-1.366-.75-2.732-1.13-4.097 1.54-.676 3-1.486 4.45-2.322.38 1.366.76 2.731 1.13 4.097-1.45.836-2.91 1.645-4.45 2.321l1.29 4.655c-1.58.611-3.09.973-4.79 1.021zm5.94 3.136c-.39-1.386-.77-2.771-1.15-4.157 1.53-.671 2.97-1.474 4.42-2.304.38 1.386.76 2.772 1.15 4.157-1.45.83-2.89 1.633-4.42 2.304zm3.3-6.478l-1.29-4.655c1.46-.834 2.92-1.632 4.47-2.288.42 1.551.85 3.103 1.28 4.655-1.55.656-3 1.454-4.46 2.288zm5.64 1.858c-.39-1.386-.77-2.771-1.15-4.157 1.5-.55 2.92-.866 4.53-.917.38 1.385.76 2.771 1.15 4.156-1.61.052-3.03.368-4.53.918z"/></g><path fill-rule="evenodd" clip-rule="evenodd" d="M1149.54 103.47c-.04.536-.07 1.073-.1 1.612l.1.005v-1.617zm0 3.638l-.19-.007a68.71 68.71 0 00-.06 2.038l.25.006v-2.037zm0 4.089l-.28-.002c0 .344-.01.689-.01 1.035v1.025l.29.002v-2.06zm0 4.101l-.32-.008-.06 2.019.38.014v-2.025zm0 4.036l-.47-.025-.12 1.983.59.041v-1.999zm0 3.986l-.74-.063-.18 1.962.92.092v-1.991zm-224.392-11.055l.076 1.034.997-.076c-.026-.341-.051-.684-.075-1.028l-.998.07zm.243 3.087c.06.681.123 1.358.19 2.032l.995-.098c-.067-.671-.13-1.344-.189-2.021l-.996.087zm.402 4.045c.074.668.152 1.332.234 1.993l.992-.122c-.081-.657-.158-1.318-.232-1.981l-.994.11zm.49 3.966c.089.655.181 1.306.277 1.953l.99-.146c-.096-.644-.188-1.291-.276-1.941l-.991.134zm.582 3.92c.11.681.223 1.358.341 2.032l.985-.173c-.117-.669-.23-1.342-.339-2.019l-.987.16zm222.275 2.097c.09-.671.17-1.344.25-2.021l-.99-.116c-.08.671-.16 1.34-.25 2.005l.99.132zm-221.569 1.944c.126.666.255 1.329.388 1.988l.981-.199a130.07 130.07 0 01-.386-1.974l-.983.185zm220.969 2.039c.11-.657.21-1.318.31-1.982l-.98-.148c-.1.658-.21 1.313-.32 1.965l.99.165zm-220.169 1.914c.141.651.286 1.298.435 1.942l.974-.225c-.147-.639-.291-1.282-.432-1.929l-.977.212zm219.449 1.998c.13-.646.25-1.296.37-1.949l-.98-.182c-.12.647-.24 1.292-.37 1.933l.98.198zm-218.557 1.865c.161.654.325 1.304.494 1.95l.967-.253c-.167-.641-.33-1.286-.49-1.936l-.971.239zm217.677 2.122c.15-.658.31-1.318.45-1.983l-.97-.216c-.15.659-.3 1.314-.46 1.966l.98.233zm-216.651 1.811c.182.656.367 1.309.557 1.958l.96-.281a137.77 137.77 0 01-.553-1.944l-.964.267zm215.641 2.089c.18-.643.35-1.289.52-1.94l-.97-.25c-.17.645-.34 1.285-.52 1.922l.97.268zm-214.502 1.802c.197.64.399 1.277.605 1.909l.951-.31c-.204-.627-.405-1.259-.601-1.894l-.955.295zm213.362 2.029c.2-.634.4-1.272.59-1.914l-.96-.284c-.19.636-.38 1.268-.58 1.896l.95.302zm-212.128 1.764c.215.625.433 1.246.655 1.863l.941-.338a125.53 125.53 0 01-.65-1.849l-.946.324zm210.828 2.093c.23-.635.45-1.274.67-1.917l-.95-.319c-.21.637-.43 1.27-.66 1.899l.94.337zm-209.462 1.699c.242.639.487 1.273.737 1.902l.929-.369c-.247-.624-.491-1.253-.73-1.886l-.936.353zm208.042 2.063c.24-.619.49-1.242.72-1.87l-.93-.354c-.24.621-.48 1.239-.72 1.852l.93.372zm-206.543 1.714c.258.621.52 1.237.786 1.848l.917-.399c-.264-.607-.524-1.218-.78-1.833l-.923.384zm204.973 1.987c.28-.614.54-1.233.81-1.856l-.92-.389c-.27.617-.53 1.23-.8 1.839l.91.406zm-203.376 1.682c.275.602.553 1.2.835 1.794l.903-.43c-.28-.588-.556-1.181-.828-1.779l-.91.415zm201.656 1.991c.3-.604.59-1.212.88-1.824l-.91-.424c-.28.606-.57 1.208-.86 1.806l.89.442zm-199.926 1.643c.304.61.611 1.216.923 1.816l.888-.46c-.309-.596-.615-1.196-.915-1.801l-.896.445zm198.086 1.927c.32-.586.63-1.177.94-1.772l-.89-.459c-.31.59-.61 1.175-.93 1.756l.88.475zm-196.214 1.677c.32.591.644 1.177.973 1.758l.87-.492c-.325-.576-.647-1.157-.964-1.743l-.879.477zm194.224 1.838c.35-.582.69-1.169 1.02-1.76l-.87-.492c-.33.585-.67 1.166-1.01 1.743l.86.509zm-192.254 1.649c.337.573.679 1.141 1.024 1.705l.853-.523c-.343-.558-.681-1.121-1.015-1.689l-.862.507zm190.134 1.789c.36-.564.72-1.133 1.08-1.706l-.85-.525c-.35.567-.71 1.13-1.07 1.689l.84.542zm-188.025 1.649c.366.573.736 1.14 1.11 1.702l.833-.554c-.371-.557-.737-1.119-1.1-1.686l-.843.538zm185.785 1.681c.38-.546.76-1.096 1.13-1.651l-.83-.559c-.37.55-.74 1.095-1.12 1.636l.82.574zm-2.39 3.271c.41-.537.81-1.078 1.21-1.623l-.81-.59c-.39.54-.79 1.076-1.2 1.607l.8.606zm-181.15-1.579c.382.552.769 1.099 1.159 1.64l.811-.584c-.387-.537-.769-1.078-1.148-1.625l-.822.569zm178.65 4.74c.42-.517.85-1.04 1.26-1.566l-.78-.621a94.07 94.07 0 01-1.25 1.551l.77.636zm-176.309-1.491c.404.538.811 1.071 1.223 1.599l.788-.615c-.407-.523-.811-1.051-1.211-1.584l-.8.6zm173.689 4.55c.45-.502.89-1.009 1.33-1.521l-.76-.65c-.44.507-.88 1.009-1.32 1.506l.75.665zm-171.199-1.358c.426.526.857 1.046 1.291 1.561l.764-.645c-.43-.51-.856-1.025-1.279-1.546l-.776.63zm168.449 4.324c.47-.484.93-.974 1.39-1.468l-.74-.68c-.45.49-.91.975-1.37 1.455l.72.693zm-165.844-1.236c.442.504.888 1.002 1.337 1.495l.739-.674a104.73 104.73 0 01-1.324-1.48l-.752.659zm163.004 4.086c.48-.465.96-.935 1.43-1.41l-.71-.707c-.46.471-.94.936-1.42 1.397l.7.72zm-160.307-1.129c.467.494.939.981 1.414 1.463l.712-.702c-.471-.477-.937-.96-1.4-1.449l-.726.688zm157.347 3.875c.5-.448 1-.902 1.49-1.361l-.68-.733c-.49.455-.98.904-1.48 1.349l.67.745zm-154.496-.983c.483.471.97.936 1.46 1.395l.684-.729a98.871 98.871 0 01-1.445-1.382l-.699.716zm151.436 3.615c.52-.428 1.03-.862 1.54-1.301l-.65-.758c-.51.435-1.02.865-1.53 1.289l.64.77zm-148.495-.859c.497.448.998.891 1.502 1.327l.655-.755c-.5-.433-.995-.871-1.488-1.314l-.669.742zm145.345 3.372c.53-.409 1.06-.823 1.59-1.242l-.63-.782c-.52.416-1.04.826-1.57 1.231l.61.793zm-142.303-.737c.52.433 1.043.86 1.57 1.281l.624-.781c-.521-.417-1.04-.84-1.555-1.269l-.639.769zm139.053 3.137c.55-.39 1.1-.784 1.64-1.185l-.6-.804c-.53.397-1.07.788-1.62 1.174l.58.815zm-135.893-.61c.534.41 1.07.813 1.61 1.211l.594-.805c-.535-.394-1.067-.794-1.595-1.199l-.609.793zm132.573 2.887c.56-.369 1.12-.743 1.67-1.123l-.56-.825c-.55.376-1.11.747-1.66 1.113l.55.835zm-129.334-.5c.549.389 1.101.771 1.656 1.147l.561-.827c-.549-.373-1.096-.752-1.639-1.136l-.578.816zm125.924 2.657c.57-.35 1.15-.704 1.71-1.064l-.53-.845c-.56.356-1.13.708-1.7 1.054l.52.855zm-122.581-.39c.565.368 1.133.729 1.704 1.085l.529-.849a99.983 99.983 0 01-1.688-1.074l-.545.838zm119.091 2.423c.59-.328 1.17-.662 1.76-1.001l-.51-.863c-.57.335-1.15.666-1.73.992l.48.872zm-115.665-.289c.577.344 1.157.682 1.739 1.014l.495-.869c-.576-.329-1.15-.663-1.722-1.004l-.512.859zm112.115 2.197c.6-.307 1.2-.62 1.79-.938l-.48-.881c-.58.315-1.17.625-1.76.93l.45.889zm-108.618-.203c.592.323 1.187.64 1.785.951l.461-.888c-.591-.308-1.181-.621-1.768-.941l-.478.878zm105.008 1.987c.6-.287 1.21-.579 1.81-.876l-.44-.897c-.6.295-1.2.584-1.8.869l.43.904zm-101.423-.122c.603.3 1.208.593 1.816.88l.427-.904c-.602-.285-1.201-.575-1.798-.871l-.445.895zm97.743 1.779c.62-.266 1.23-.537 1.84-.813l-.41-.911c-.6.273-1.21.542-1.83.805l.4.919zm-94.098-.055c.612.275 1.227.544 1.844.808l.393-.919c-.611-.262-1.22-.529-1.827-.801l-.41.912zm90.368 1.584c.62-.244 1.25-.494 1.87-.749l-.38-.925c-.62.253-1.24.5-1.86.742l.37.932zm-86.659.001c.624.252 1.25.499 1.878.74l.358-.933c-.622-.239-1.242-.484-1.86-.734l-.376.927zm82.879 1.4c.63-.223 1.26-.451 1.89-.684l-.34-.938c-.63.231-1.26.458-1.89.679l.34.943zm-79.112.046c.632.229 1.266.452 1.902.669l.323-.946a97.874 97.874 0 01-1.884-.664l-.341.941zm75.282 1.226c.64-.201 1.28-.408 1.92-.62l-.32-.949c-.63.211-1.26.416-1.9.615l.3.954zm-71.47.078c.64.206 1.28.406 1.93.6l.29-.957c-.64-.193-1.28-.391-1.91-.595l-.31.952zm67.6 1.065c.65-.18 1.3-.365 1.94-.555l-.28-.959c-.64.189-1.28.372-1.93.55l.27.964zm-63.73.1c.64.182 1.29.359 1.94.53l.26-.968c-.65-.169-1.29-.344-1.93-.525l-.27.963zm59.83.912c.65-.158 1.3-.321 1.95-.49l-.25-.968c-.64.168-1.29.33-1.94.486l.24.972zm-55.93.112c.65.159 1.3.312 1.96.459l.22-.975c-.65-.146-1.3-.298-1.95-.455l-.23.971zm51.99.769c.66-.135 1.32-.277 1.97-.424l-.21-.976c-.65.146-1.31.286-1.96.421l.2.979zm-48.06.115c.66.136 1.32.265 1.98.39l.18-.983c-.65-.123-1.3-.252-1.96-.386l-.2.979zm44.1.635c.66-.114 1.33-.233 1.99-.358l-.19-.983c-.66.124-1.31.243-1.97.356l.17.985zm-40.13.109c.66.113 1.32.219 1.99.32l.15-.989c-.66-.1-1.32-.205-1.98-.317l-.16.986zm36.15.509c.66-.092 1.33-.189 1.99-.292l-.15-.988c-.66.102-1.32.198-1.98.289l.14.991zm-32.17.096c.67.089 1.34.173 2 .25l.12-.993c-.66-.077-1.32-.16-1.98-.248l-.14.991zm28.16.389c.67-.07 1.34-.145 2.01-.226l-.12-.993c-.66.08-1.33.155-1.99.224l.1.995zm-24.15.077c.67.066 1.34.126 2.01.181l.08-.997c-.67-.054-1.33-.114-1.99-.179l-.1.995zm20.14.274c.67-.047 1.34-.1 2.01-.159l-.09-.996c-.66.058-1.33.11-1.99.157l.07.998zm-16.12.054a123 123 0 002.01.112l.05-.999c-.67-.031-1.33-.068-2-.111l-.06.998zm12.09.163c.67-.025 1.34-.056 2.01-.092l-.05-.998c-.66.035-1.33.066-2 .09l.04 1zm-8.06.027c.67.021 1.34.035 2.01.044l.02-.999c-.67-.009-1.34-.024-2-.044l-.03.999zm4.03.054c.67-.002 1.34-.01 2.01-.024l-.02-.999c-.66.013-1.33.021-2 .023l.01 1z" fill="#1D976C"/><defs><clipPath id="clip0"><path fill="#fff" transform="rotate(116.89 -2.763 50.756)" d="M0 0h30.693v30.693H0z"/></clipPath><clipPath id="clip1"><path fill="#fff" transform="translate(1128.27 64)" d="M0 0h41.728v40.926H0z"/></clipPath></defs></svg>