<svg width="100%" height="225" viewBox="0 0 1170 225" fill="none" xmlns="http://www.w3.org/2000/svg">
<path d="M27.2842 112.23C38.4128 271.545 251.391 251.966 251.391 112.23C251.391 -27.5056 462.067 -41.3259 476.266 112.23C490.464 265.787 689.628 254.27 701.14 112.23C712.652 -29.8093 907.211 -43.2448 925.247 112.23" stroke="#1D976C" stroke-dasharray="2 2"/>
<g clip-path="url(#clip0)">
<path d="M25.347 102.481C26.4644 102.973 27.7677 102.547 28.3784 101.49C29.6109 99.3563 31.6716 95.0036 31.63 89.8213C31.6087 87.1794 30.8958 84.0352 29.6739 81.1948C29.6588 81.1598 29.6433 81.1254 29.6281 81.0905L31.3513 76.9246C31.6349 76.2389 31.5871 75.4757 31.2202 74.8308L28.4704 69.9981C28.1921 69.509 27.6905 69.1994 27.1286 69.1697C26.5667 69.14 26.0353 69.395 25.707 69.852L23.4712 72.9642C23.4116 72.919 23.352 72.8737 23.2919 72.8295C22.6763 72.376 21.8718 72.2481 21.1397 72.4876L14.0494 74.8065C13.4424 75.005 12.9444 75.4366 12.6616 75.9943C12.6034 76.1091 12.5543 76.2294 12.5152 76.3541C12.4929 76.4253 12.4716 76.497 12.4502 76.5687L8.80739 75.379C8.27254 75.2044 7.69305 75.3126 7.25736 75.6685C7.07607 75.8166 6.93191 75.9975 6.82991 76.1986C6.68673 76.4811 6.62673 76.8033 6.6644 77.1297L7.30169 82.6534C7.38676 83.3905 7.79915 84.0344 8.43316 84.4199L12.2849 86.7624C12.2933 86.7995 12.3011 86.8366 12.3096 86.8737C13.0022 89.8872 14.2849 92.8451 15.8289 94.989C18.8577 99.1946 23.0923 101.488 25.347 102.481ZM9.0883 82.4473L8.47868 77.1636L12.0288 78.3229C11.6725 80.2447 11.6211 82.2984 11.8769 84.4096L9.36765 82.8835C9.21112 82.7884 9.10928 82.6293 9.0883 82.4473ZM14.6085 76.5158L21.6988 74.1969C21.8797 74.1377 22.0766 74.1678 22.2253 74.2774C22.9907 74.8414 23.6766 75.4624 24.2902 76.1118L13.6516 79.5912C13.7858 78.5268 14.0024 77.6223 14.2313 76.8918C14.2868 76.7153 14.4276 76.5749 14.6085 76.5158ZM29.6894 76.2372L28.5669 78.951C27.5258 77.0966 26.2708 75.4701 24.8477 74.1303L27.0267 71.0973L29.6571 75.7202C29.7477 75.8795 29.7595 76.068 29.6894 76.2372ZM14.0624 86.4711C13.6387 84.6274 13.4948 82.9733 13.517 81.5273L25.541 77.5948C26.6786 79.1031 27.4801 80.6464 28.0218 81.9055C29.1526 84.534 29.8123 87.4245 29.8316 89.8358C29.8699 94.5921 27.9617 98.6152 26.8212 100.59C26.6702 100.852 26.348 100.957 26.0717 100.835C23.9845 99.9161 20.068 97.7978 17.2883 93.938C15.8791 91.9814 14.7033 89.2598 14.0624 86.4711Z" fill="#1D976C"/>
<path d="M19.1158 88.5217C18.5953 89.5484 18.4653 90.7736 18.8506 91.9516C19.2239 93.0931 20.0193 94.0207 21.0904 94.5638C22.1614 95.107 23.3799 95.2005 24.5213 94.8272C26.8776 94.0566 28.1675 91.5127 27.3969 89.1565C27.0236 88.0151 26.2281 87.0874 25.1571 86.5442C24.0861 86.0011 22.8676 85.9076 21.7262 86.2809C20.548 86.6663 19.6365 87.4946 19.1158 88.5217ZM25.6877 89.7155C25.9189 90.4223 25.841 91.1573 25.5286 91.7734C25.2161 92.3896 24.6692 92.8867 23.9623 93.1179C23.2775 93.3419 22.5464 93.2857 21.9038 92.9598C21.2612 92.634 20.7839 92.0774 20.5599 91.3925C20.0975 89.9788 20.8716 88.4525 22.2853 87.9901C22.9701 87.7661 23.7012 87.8222 24.3438 88.1481C24.9864 88.4739 25.4637 89.0306 25.6877 89.7155Z" fill="#1D976C"/>
<path d="M18.2816 65.5536C18.1775 65.7589 18.1517 66.0038 18.229 66.2398L19.5196 70.186C19.6739 70.658 20.1817 70.9155 20.6537 70.7611C21.1257 70.6068 21.3832 70.099 21.2289 69.6269L19.9382 65.6808C19.7839 65.2088 19.2761 64.9513 18.8041 65.1057C18.5681 65.1828 18.3857 65.3484 18.2816 65.5536Z" fill="#1D976C"/>
<path d="M17.0376 71.9439C17.5096 71.7896 17.7671 71.2817 17.6128 70.8097L15.1314 63.2229C14.9771 62.7509 14.4693 62.4934 13.9973 62.6478C13.7613 62.725 13.5789 62.8905 13.4748 63.0957C13.3708 63.301 13.3449 63.5459 13.4222 63.7819L15.9035 71.3687C16.0578 71.8408 16.5656 72.0983 17.0376 71.9439Z" fill="#1D976C"/>
<path d="M13.9964 71.9924L12.7058 68.0462C12.5514 67.5742 12.0437 67.3167 11.5716 67.4711C11.3356 67.5483 11.1532 67.7138 11.0492 67.919C10.9451 68.1242 10.9193 68.3692 10.9965 68.6052L12.2871 72.5514C12.4415 73.0234 12.9493 73.2809 13.4213 73.1265C13.8933 72.9722 14.1508 72.4644 13.9964 71.9924Z" fill="#1D976C"/>
</g>
<g clip-path="url(#clip1)">
<path d="M1136.43 70.9042C1136.25 70.2303 1135.56 69.8226 1134.87 69.9931C1134.18 70.164 1133.76 70.8488 1133.94 71.5229L1142.33 103.976C1142.47 104.546 1143 104.926 1143.57 104.926C1143.67 104.926 1143.78 104.914 1143.89 104.887C1144.57 104.717 1144.99 104.032 1144.81 103.358L1136.43 70.9042Z" fill="#1D976C"/>
<path d="M1164.34 80.045C1162.98 75.0955 1161.61 70.1462 1160.24 65.1967C1160.09 64.6609 1159.83 64.0862 1158.86 64.0287C1151.17 63.4828 1146.12 70.99 1138.44 70.4439C1137.83 70.3706 1137.44 70.6804 1137.59 71.2161C1138.96 76.1656 1140.31 81.1181 1141.69 86.0646C1141.91 86.8585 1142.47 87.1592 1143.07 87.2325C1150.76 87.7786 1155.81 80.2714 1163.49 80.8175C1164.1 80.8906 1164.49 80.5809 1164.34 80.045ZM1158.31 65.8972C1158.69 67.2628 1159.07 68.6283 1159.44 69.9938C1157.83 70.046 1156.4 70.366 1154.89 70.9217C1154.51 69.5562 1154.13 68.1906 1153.75 66.8251C1155.27 66.2696 1156.69 65.9493 1158.31 65.8972ZM1142.47 81.2072C1142.04 79.6557 1141.61 78.1039 1141.19 76.5523C1142.89 76.504 1144.39 76.1428 1145.97 75.5313C1145.59 74.1657 1145.22 72.8002 1144.84 71.4346C1146.38 70.7586 1147.84 69.9493 1149.29 69.1134C1149.67 70.4788 1150.05 71.8444 1150.42 73.21C1148.97 74.0458 1147.51 74.8554 1145.97 75.5313C1146.4 77.0828 1146.83 78.6346 1147.26 80.1861C1145.68 80.7975 1144.17 81.1588 1142.47 81.2072ZM1148.41 84.3427C1148.02 82.9572 1147.64 81.5716 1147.26 80.1859C1148.79 79.515 1150.23 78.7125 1151.68 77.8825C1152.06 79.2682 1152.44 80.6537 1152.83 82.0394C1151.38 82.8695 1149.94 83.6718 1148.41 84.3427ZM1151.71 77.8647C1151.28 76.3131 1150.85 74.7614 1150.42 73.2098C1151.88 72.3758 1153.34 71.5777 1154.89 70.9218C1155.31 72.4734 1155.74 74.025 1156.17 75.5766C1154.62 76.2327 1153.17 77.0306 1151.71 77.8647ZM1157.35 79.7228C1156.96 78.3373 1156.58 76.9517 1156.2 75.566C1157.7 75.0162 1159.12 74.7001 1160.73 74.6487C1161.11 76.0344 1161.49 77.42 1161.88 78.8054C1160.27 78.8569 1158.85 79.173 1157.35 79.7228Z" fill="#1D976C"/>
</g>
<path fill-rule="evenodd" clip-rule="evenodd" d="M1149.54 103.47C1149.5 104.006 1149.47 104.543 1149.44 105.082L1149.54 105.087V103.47ZM1149.54 107.108L1149.35 107.101C1149.32 107.777 1149.3 108.457 1149.29 109.139L1149.54 109.145V107.108ZM1149.54 111.197L1149.26 111.195C1149.26 111.539 1149.25 111.884 1149.25 112.23C1149.25 112.572 1149.25 112.914 1149.25 113.255L1149.54 113.257V111.197ZM1149.54 115.298L1149.22 115.29C1149.2 115.966 1149.18 116.639 1149.16 117.309L1149.54 117.323V115.298ZM1149.54 119.334L1149.07 119.309C1149.03 119.973 1148.99 120.634 1148.95 121.292L1149.54 121.333V119.334ZM1149.54 123.32L1148.8 123.257C1148.74 123.914 1148.68 124.568 1148.62 125.219L1149.54 125.311V123.32ZM925.148 112.265C925.173 112.61 925.198 112.955 925.224 113.299L926.221 113.223C926.195 112.882 926.17 112.539 926.146 112.195L925.148 112.265ZM925.391 115.352C925.451 116.033 925.514 116.71 925.581 117.384L926.576 117.286C926.509 116.615 926.446 115.942 926.387 115.265L925.391 115.352ZM925.793 119.397C925.867 120.065 925.945 120.729 926.027 121.39L927.019 121.268C926.938 120.611 926.861 119.95 926.787 119.287L925.793 119.397ZM926.283 123.363C926.372 124.018 926.464 124.669 926.56 125.316L927.55 125.17C927.454 124.526 927.362 123.879 927.274 123.229L926.283 123.363ZM926.865 127.283C926.975 127.964 927.088 128.641 927.206 129.315L928.191 129.142C928.074 128.473 927.961 127.8 927.852 127.123L926.865 127.283ZM1149.14 129.38C1149.23 128.709 1149.31 128.036 1149.39 127.359L1148.4 127.243C1148.32 127.914 1148.24 128.583 1148.15 129.248L1149.14 129.38ZM927.571 131.324C927.697 131.99 927.826 132.653 927.959 133.312L928.94 133.113C928.807 132.459 928.678 131.801 928.554 131.139L927.571 131.324ZM1148.54 133.363C1148.65 132.706 1148.75 132.045 1148.85 131.381L1147.87 131.233C1147.77 131.891 1147.66 132.546 1147.55 133.198L1148.54 133.363ZM928.371 135.277C928.512 135.928 928.657 136.575 928.806 137.219L929.78 136.994C929.633 136.355 929.489 135.712 929.348 135.065L928.371 135.277ZM1147.82 137.275C1147.95 136.629 1148.07 135.979 1148.19 135.326L1147.21 135.144C1147.09 135.791 1146.97 136.436 1146.84 137.077L1147.82 137.275ZM929.263 139.14C929.424 139.794 929.588 140.444 929.757 141.09L930.724 140.837C930.557 140.196 930.394 139.551 930.234 138.901L929.263 139.14ZM1146.94 141.262C1147.09 140.604 1147.25 139.944 1147.39 139.279L1146.42 139.063C1146.27 139.722 1146.12 140.377 1145.96 141.029L1146.94 141.262ZM930.289 143.073C930.471 143.729 930.656 144.382 930.846 145.031L931.806 144.75C931.618 144.106 931.433 143.458 931.253 142.806L930.289 143.073ZM1145.93 145.162C1146.11 144.519 1146.28 143.873 1146.45 143.222L1145.48 142.972C1145.31 143.617 1145.14 144.257 1144.96 144.894L1145.93 145.162ZM931.428 146.964C931.625 147.604 931.827 148.241 932.033 148.873L932.984 148.563C932.78 147.936 932.579 147.304 932.383 146.669L931.428 146.964ZM1144.79 148.993C1144.99 148.359 1145.19 147.721 1145.38 147.079L1144.42 146.795C1144.23 147.431 1144.04 148.063 1143.84 148.691L1144.79 148.993ZM932.662 150.757C932.877 151.382 933.095 152.003 933.317 152.62L934.258 152.282C934.037 151.67 933.821 151.053 933.608 150.433L932.662 150.757ZM1143.49 152.85C1143.72 152.215 1143.94 151.576 1144.16 150.933L1143.21 150.614C1143 151.251 1142.78 151.884 1142.55 152.513L1143.49 152.85ZM934.028 154.549C934.27 155.188 934.515 155.822 934.765 156.451L935.694 156.082C935.447 155.458 935.203 154.829 934.964 154.196L934.028 154.549ZM1142.07 156.612C1142.31 155.993 1142.56 155.37 1142.79 154.742L1141.86 154.388C1141.62 155.009 1141.38 155.627 1141.14 156.24L1142.07 156.612ZM935.527 158.326C935.785 158.947 936.047 159.563 936.313 160.174L937.23 159.775C936.966 159.168 936.706 158.557 936.45 157.942L935.527 158.326ZM1140.5 160.313C1140.78 159.699 1141.04 159.08 1141.31 158.457L1140.39 158.068C1140.12 158.685 1139.86 159.298 1139.59 159.907L1140.5 160.313ZM937.124 161.995C937.399 162.597 937.677 163.195 937.959 163.789L938.862 163.359C938.582 162.771 938.306 162.178 938.034 161.58L937.124 161.995ZM1138.78 163.986C1139.08 163.382 1139.37 162.774 1139.66 162.162L1138.75 161.738C1138.47 162.344 1138.18 162.946 1137.89 163.544L1138.78 163.986ZM938.854 165.629C939.158 166.239 939.465 166.845 939.777 167.445L940.665 166.985C940.356 166.389 940.05 165.789 939.75 165.184L938.854 165.629ZM1136.94 167.556C1137.26 166.97 1137.57 166.379 1137.88 165.784L1136.99 165.325C1136.68 165.915 1136.38 166.5 1136.06 167.081L1136.94 167.556ZM940.726 169.233C941.046 169.824 941.37 170.41 941.699 170.991L942.569 170.499C942.244 169.923 941.922 169.342 941.605 168.756L940.726 169.233ZM1134.95 171.071C1135.3 170.489 1135.64 169.902 1135.97 169.311L1135.1 168.819C1134.77 169.404 1134.43 169.985 1134.09 170.562L1134.95 171.071ZM942.696 172.72C943.033 173.293 943.375 173.861 943.72 174.425L944.573 173.902C944.23 173.344 943.892 172.781 943.558 172.213L942.696 172.72ZM1132.83 174.509C1133.19 173.945 1133.55 173.376 1133.91 172.803L1133.06 172.278C1132.71 172.845 1132.35 173.408 1131.99 173.967L1132.83 174.509ZM944.805 176.158C945.171 176.731 945.541 177.298 945.915 177.86L946.748 177.306C946.377 176.749 946.011 176.187 945.648 175.62L944.805 176.158ZM1130.59 177.839C1130.97 177.293 1131.35 176.743 1131.72 176.188L1130.89 175.629C1130.52 176.179 1130.15 176.724 1129.77 177.265L1130.59 177.839ZM1128.2 181.11C1128.61 180.573 1129.01 180.032 1129.41 179.487L1128.6 178.897C1128.21 179.437 1127.81 179.973 1127.4 180.504L1128.2 181.11ZM947.05 179.531C947.432 180.083 947.819 180.63 948.209 181.171L949.02 180.587C948.633 180.05 948.251 179.509 947.872 178.962L947.05 179.531ZM1125.7 184.271C1126.12 183.754 1126.55 183.231 1126.96 182.705L1126.18 182.084C1125.77 182.606 1125.35 183.123 1124.93 183.635L1125.7 184.271ZM949.391 182.78C949.795 183.318 950.202 183.851 950.614 184.379L951.402 183.764C950.995 183.241 950.591 182.713 950.191 182.18L949.391 182.78ZM1123.08 187.33C1123.53 186.828 1123.97 186.321 1124.41 185.809L1123.65 185.159C1123.21 185.666 1122.77 186.168 1122.33 186.665L1123.08 187.33ZM951.881 185.972C952.307 186.498 952.738 187.018 953.172 187.533L953.936 186.888C953.506 186.378 953.08 185.863 952.657 185.342L951.881 185.972ZM1120.33 190.296C1120.8 189.812 1121.26 189.322 1121.72 188.828L1120.98 188.148C1120.53 188.638 1120.07 189.123 1119.61 189.603L1120.33 190.296ZM954.486 189.06C954.928 189.564 955.374 190.062 955.823 190.555L956.562 189.881C956.117 189.393 955.676 188.9 955.238 188.401L954.486 189.06ZM1117.49 193.146C1117.97 192.681 1118.45 192.211 1118.92 191.736L1118.21 191.029C1117.75 191.5 1117.27 191.965 1116.79 192.426L1117.49 193.146ZM957.183 192.017C957.65 192.511 958.122 192.998 958.597 193.48L959.309 192.778C958.838 192.301 958.372 191.818 957.909 191.329L957.183 192.017ZM1114.53 195.892C1115.03 195.444 1115.53 194.99 1116.02 194.531L1115.34 193.798C1114.85 194.253 1114.36 194.702 1113.86 195.147L1114.53 195.892ZM960.034 194.909C960.517 195.38 961.004 195.845 961.494 196.304L962.178 195.575C961.692 195.12 961.211 194.659 960.733 194.193L960.034 194.909ZM1111.47 198.524C1111.99 198.096 1112.5 197.662 1113.01 197.223L1112.36 196.465C1111.85 196.9 1111.34 197.33 1110.83 197.754L1111.47 198.524ZM962.975 197.665C963.472 198.113 963.973 198.556 964.477 198.992L965.132 198.237C964.632 197.804 964.137 197.366 963.644 196.923L962.975 197.665ZM1108.32 201.037C1108.85 200.628 1109.38 200.214 1109.91 199.795L1109.28 199.013C1108.76 199.429 1108.24 199.839 1107.71 200.244L1108.32 201.037ZM966.017 200.3C966.537 200.733 967.06 201.16 967.587 201.581L968.211 200.8C967.69 200.383 967.171 199.96 966.656 199.531L966.017 200.3ZM1105.07 203.437C1105.62 203.047 1106.17 202.653 1106.71 202.252L1106.11 201.448C1105.58 201.845 1105.04 202.236 1104.49 202.622L1105.07 203.437ZM969.177 202.827C969.711 203.237 970.247 203.64 970.787 204.038L971.381 203.233C970.846 202.839 970.314 202.439 969.786 202.034L969.177 202.827ZM1101.75 205.714C1102.31 205.345 1102.87 204.971 1103.42 204.591L1102.86 203.766C1102.31 204.142 1101.75 204.513 1101.2 204.879L1101.75 205.714ZM972.416 205.214C972.965 205.603 973.517 205.985 974.072 206.361L974.633 205.534C974.084 205.161 973.537 204.782 972.994 204.398L972.416 205.214ZM1098.34 207.871C1098.91 207.521 1099.49 207.167 1100.05 206.807L1099.52 205.962C1098.96 206.318 1098.39 206.67 1097.82 207.016L1098.34 207.871ZM975.759 207.481C976.324 207.849 976.892 208.21 977.463 208.566L977.992 207.717C977.426 207.365 976.864 207.007 976.304 206.643L975.759 207.481ZM1094.85 209.904C1095.44 209.576 1096.02 209.242 1096.61 208.903L1096.1 208.04C1095.53 208.375 1094.95 208.706 1094.37 209.032L1094.85 209.904ZM979.185 209.615C979.762 209.959 980.342 210.297 980.924 210.629L981.419 209.76C980.843 209.431 980.269 209.097 979.697 208.756L979.185 209.615ZM1091.3 211.812C1091.9 211.505 1092.5 211.192 1093.09 210.874L1092.61 209.993C1092.03 210.308 1091.44 210.618 1090.85 210.923L1091.3 211.812ZM982.682 211.609C983.274 211.932 983.869 212.249 984.467 212.56L984.928 211.672C984.337 211.364 983.747 211.051 983.16 210.731L982.682 211.609ZM1087.69 213.596C1088.29 213.309 1088.9 213.017 1089.5 212.72L1089.06 211.823C1088.46 212.118 1087.86 212.407 1087.26 212.692L1087.69 213.596ZM986.267 213.474C986.87 213.774 987.475 214.067 988.083 214.354L988.51 213.45C987.908 213.165 987.309 212.875 986.712 212.579L986.267 213.474ZM1084.01 215.253C1084.63 214.987 1085.24 214.716 1085.85 214.44L1085.44 213.529C1084.84 213.802 1084.23 214.071 1083.61 214.334L1084.01 215.253ZM989.912 215.198C990.524 215.473 991.139 215.742 991.756 216.006L992.149 215.087C991.538 214.825 990.929 214.558 990.322 214.286L989.912 215.198ZM1080.28 216.782C1080.9 216.538 1081.53 216.288 1082.15 216.033L1081.77 215.108C1081.15 215.361 1080.53 215.608 1079.91 215.85L1080.28 216.782ZM993.621 216.783C994.245 217.035 994.871 217.282 995.499 217.523L995.857 216.59C995.235 216.351 994.615 216.106 993.997 215.856L993.621 216.783ZM1076.5 218.183C1077.13 217.96 1077.76 217.732 1078.39 217.499L1078.05 216.561C1077.42 216.792 1076.79 217.019 1076.16 217.24L1076.5 218.183ZM997.388 218.229C998.02 218.458 998.654 218.681 999.29 218.898L999.613 217.952C998.983 217.737 998.355 217.516 997.729 217.288L997.388 218.229ZM1072.67 219.455C1073.31 219.254 1073.95 219.047 1074.59 218.835L1074.27 217.886C1073.64 218.097 1073.01 218.302 1072.37 218.501L1072.67 219.455ZM1001.2 219.533C1001.84 219.739 1002.48 219.939 1003.13 220.133L1003.42 219.176C1002.78 218.983 1002.14 218.785 1001.51 218.581L1001.2 219.533ZM1068.8 220.598C1069.45 220.418 1070.1 220.233 1070.74 220.043L1070.46 219.084C1069.82 219.273 1069.18 219.456 1068.53 219.634L1068.8 220.598ZM1005.07 220.698C1005.71 220.88 1006.36 221.057 1007.01 221.228L1007.27 220.26C1006.62 220.091 1005.98 219.916 1005.34 219.735L1005.07 220.698ZM1064.9 221.61C1065.55 221.452 1066.2 221.289 1066.85 221.12L1066.6 220.152C1065.96 220.32 1065.31 220.482 1064.66 220.638L1064.9 221.61ZM1008.97 221.722C1009.62 221.881 1010.27 222.034 1010.93 222.181L1011.15 221.206C1010.5 221.06 1009.85 220.908 1009.2 220.751L1008.97 221.722ZM1060.96 222.491C1061.62 222.356 1062.28 222.214 1062.93 222.067L1062.72 221.091C1062.07 221.237 1061.41 221.377 1060.76 221.512L1060.96 222.491ZM1012.9 222.606C1013.56 222.742 1014.22 222.871 1014.88 222.996L1015.06 222.013C1014.41 221.89 1013.76 221.761 1013.1 221.627L1012.9 222.606ZM1057 223.241C1057.66 223.127 1058.33 223.008 1058.99 222.883L1058.8 221.9C1058.14 222.024 1057.49 222.143 1056.83 222.256L1057 223.241ZM1016.87 223.35C1017.53 223.463 1018.19 223.569 1018.86 223.67L1019.01 222.681C1018.35 222.581 1017.69 222.476 1017.03 222.364L1016.87 223.35ZM1053.02 223.859C1053.68 223.767 1054.35 223.67 1055.01 223.567L1054.86 222.579C1054.2 222.681 1053.54 222.777 1052.88 222.868L1053.02 223.859ZM1020.85 223.955C1021.52 224.044 1022.19 224.128 1022.85 224.205L1022.97 223.212C1022.31 223.135 1021.65 223.052 1020.99 222.964L1020.85 223.955ZM1049.01 224.344C1049.68 224.274 1050.35 224.199 1051.02 224.118L1050.9 223.125C1050.24 223.205 1049.57 223.28 1048.91 223.349L1049.01 224.344ZM1024.86 224.421C1025.53 224.487 1026.2 224.547 1026.87 224.602L1026.95 223.605C1026.28 223.551 1025.62 223.491 1024.96 223.426L1024.86 224.421ZM1045 224.695C1045.67 224.648 1046.34 224.595 1047.01 224.536L1046.92 223.54C1046.26 223.598 1045.59 223.65 1044.93 223.697L1045 224.695ZM1028.88 224.749C1029.55 224.792 1030.22 224.829 1030.89 224.861L1030.94 223.862C1030.27 223.831 1029.61 223.794 1028.94 223.751L1028.88 224.749ZM1040.97 224.912C1041.64 224.887 1042.31 224.856 1042.98 224.82L1042.93 223.822C1042.27 223.857 1041.6 223.888 1040.93 223.912L1040.97 224.912ZM1032.91 224.939C1033.58 224.96 1034.25 224.974 1034.92 224.983L1034.94 223.984C1034.27 223.975 1033.6 223.96 1032.94 223.94L1032.91 224.939ZM1036.94 224.993C1037.61 224.991 1038.28 224.983 1038.95 224.969L1038.93 223.97C1038.27 223.983 1037.6 223.991 1036.93 223.993L1036.94 224.993Z" fill="#1D976C"/>
<defs>
<clipPath id="clip0">
<rect width="30.693" height="30.693" fill="white" transform="translate(41.2559 76.1753) rotate(116.89)"/>
</clipPath>
<clipPath id="clip1">
<rect width="41.7284" height="40.9259" fill="white" transform="translate(1128.27 64.0004)"/>
</clipPath>
</defs>
</svg>
