<svg width="60" height="60" viewBox="0 0 60 60" fill="none" xmlns="http://www.w3.org/2000/svg">
<path d="M0 57.8203L8.79094 57.8208L11.2751 48.8687V39.917H0V57.8203Z" fill="#BED8FB"/>
<path d="M0 57.8083L8.79094 57.8088L11.2751 51.3867H0V57.8083Z" fill="#9DC6FB"/>
<path d="M30.5054 48.7025L31.8196 48.2744L45.8137 34.8674C46.4344 34.2727 47.1598 33.8486 47.9291 33.598C49.7503 33.0048 51.8203 33.3777 53.3377 34.731C55.743 36.8732 55.8232 40.6054 53.5132 42.8481L40.0552 55.918" fill="#FFCBBE"/>
<path d="M8.78906 57.7543H31.874C34.7081 57.7543 37.5047 57.1056 40.0495 55.8579L56.8927 47.5995C59.7838 46.1821 60.8636 42.6082 59.2412 39.8269C57.7836 37.3283 54.6502 36.3699 52.0443 37.6257L34.586 46.0392L8.78906 41.8507" fill="#FFDDCE"/>
<path d="M18.6377 47.2794H29.8543H30.205C31.3765 47.2794 32.4399 46.8195 33.2269 46.0715C34.4111 45.0972 35.1664 43.6206 35.1664 41.9675C35.1664 39.0337 32.7881 36.6556 29.8544 36.6556H22.8045C21.604 34.2064 19.0879 32.5196 16.1764 32.5196C12.1005 32.5196 8.79639 35.8237 8.79639 39.8995V52.2642" fill="#FFDDCE"/>
<path d="M18.6256 44.9246H30.1935C31.3646 44.9246 32.4282 44.4646 33.2153 43.7161C34.1088 42.9809 34.7569 41.9608 35.0213 40.7958C35.1083 41.1761 35.1541 41.5721 35.1541 41.979C35.1541 43.6328 34.3995 45.1094 33.2152 46.0836C32.4281 46.8321 31.3645 47.292 30.1934 47.292H18.6255V44.9246H18.6256Z" fill="#FFCBBE"/>
<path d="M19.0726 33.122C16.4336 34.2472 14.5853 36.8645 14.5853 39.9152V53.2435L8.80371 52.2797V39.9152C8.80371 35.8383 12.1079 32.5341 16.1836 32.5341C17.2098 32.5341 18.1853 32.7441 19.0726 33.122V33.122Z" fill="#FFCBBE"/>
<path d="M56.8929 47.6637L40.0494 55.9225C37.5046 57.1708 34.7086 57.8191 31.8739 57.8191H8.78906V51.3977H31.8741C34.7087 51.3977 37.5047 50.7482 40.0495 49.5011L56.893 41.2423C57.7549 40.8197 58.4564 40.2053 58.9731 39.4774C59.0685 39.6101 59.1578 39.7478 59.2411 39.8915C60.8636 42.6731 59.7843 46.2465 56.8929 47.6637V47.6637Z" fill="#FFCBBE"/>
<path d="M45.3507 7.73221C45.874 6.67729 45.443 5.39865 44.3881 4.87529L41.0872 3.24018C40.0322 2.71682 38.7536 3.14783 38.2302 4.20275L31.6981 17.3821L28.517 12.062C27.9126 11.0508 26.6049 10.7219 25.5937 11.3263L22.4321 13.2159C21.4225 13.8203 21.0919 15.128 21.6964 16.1392L27.9644 26.6238C28.3647 27.293 29.0988 27.6917 29.8765 27.6609L34.3199 27.4859C35.0993 27.4551 35.7994 27.0013 36.1445 26.3029L45.3507 7.73221Z" fill="#95D6A4"/>
<path d="M33.028 19.6046L40.6616 4.20276C40.8319 3.85964 41.0828 3.58389 41.379 3.3842L41.0883 3.24018C40.0334 2.71682 38.7548 3.14783 38.2314 4.20276L31.6992 17.3822L33.028 19.6046Z" fill="#78C2A4"/>
<path d="M30.4021 26.6293L24.134 16.1448C23.5295 15.1336 23.8601 13.8259 24.8697 13.2215L27.9044 11.4079C27.2387 10.9491 26.341 10.8898 25.6011 11.3321L22.4394 13.2216C21.4298 13.8261 21.0992 15.1337 21.7037 16.1449L27.9718 26.6294C28.3721 27.2987 29.1062 27.6973 29.884 27.6665L31.6847 27.5956C31.1559 27.4546 30.6915 27.1133 30.4021 26.6293V26.6293Z" fill="#78C2A4"/>
<path d="M17.9899 23.3535L17.8298 23.0762C17.2652 22.0981 16.0396 21.7244 15.0252 22.2208L11.9051 23.7477C10.7875 24.2946 10.3669 25.6737 10.989 26.7511L11.3869 27.4401C12.009 28.5177 13.4135 28.8429 14.446 28.1485L17.3283 26.2099C18.2655 25.5797 18.5546 24.3315 17.9899 23.3535V23.3535Z" fill="#D6F6B2"/>
<path d="M15.1591 15.5086V15.1885C15.1591 14.0591 14.2847 13.1227 13.158 13.0455L9.69258 12.8077C8.45133 12.7225 7.39746 13.7065 7.39746 14.9507V15.7463C7.39746 16.9905 8.45121 17.9745 9.69258 17.8893L13.158 17.6515C14.2847 17.5743 15.1591 16.6379 15.1591 15.5086Z" fill="#D6F6B2"/>
<path d="M17.8369 7.62088L17.9969 7.34361C18.5615 6.36556 18.2726 5.1174 17.3355 4.48716L14.4532 2.54853C13.4208 1.8542 12.0162 2.17939 11.3942 3.25693L10.9963 3.94599C10.3742 5.02353 10.7949 6.40248 11.9124 6.94939L15.0325 8.47623C16.0467 8.97263 17.2723 8.59881 17.8369 7.62088V7.62088Z" fill="#D6F6B2"/>
<path d="M49.082 23.3535L49.242 23.0762C49.8066 22.0981 51.0322 21.7244 52.0466 22.2208L55.1667 23.7477C56.2843 24.2946 56.7049 25.6737 56.0827 26.7511L55.6849 27.4401C55.0627 28.5177 53.6582 28.8429 52.6258 28.1485L49.7435 26.2099C48.8063 25.5797 48.5173 24.3315 49.082 23.3535V23.3535Z" fill="#D6F6B2"/>
<path d="M51.9141 15.5086V15.1885C51.9141 14.0591 52.7885 13.1227 53.9152 13.0455L57.3806 12.8077C58.6219 12.7225 59.6757 13.7065 59.6757 14.9507V15.7463C59.6757 16.9905 58.622 17.9745 57.3806 17.8893L53.9152 17.6515C52.7885 17.5743 51.9141 16.6379 51.9141 15.5086Z" fill="#D6F6B2"/>
<path d="M49.242 7.62088L49.082 7.34361C48.5174 6.36556 48.8063 5.1174 49.7434 4.48716L52.6257 2.54853C53.6581 1.8542 55.0627 2.17939 55.6848 3.25693L56.0826 3.94599C56.7048 5.02353 56.2841 6.40248 55.1666 6.94939L52.0466 8.47623C51.0322 8.97263 49.8066 8.59881 49.242 7.62088V7.62088Z" fill="#D6F6B2"/>
</svg>
